<?xml version="1.0"?><svg xmlns="http://www.w3.org/2000/svg"  viewBox="0 0 128 128" width="128px" height="128px">    <path d="M 79 6 C 61.8 6 46.700781 15.099219 38.300781 28.699219 C 19.500781 35.199219 6 53 6 74 C 6 85.7 10.200781 96.8 17.800781 105.5 L 6.8007812 116.90039 C 6.0007813 117.80039 5.6992187 118.99922 6.1992188 120.19922 C 6.6992188 121.39922 7.8 122 9 122 L 54 122 C 70 122 84.2 114.1 93 102 L 124 102 C 125.2 102 126.30078 101.29922 126.80078 100.19922 C 127.30078 99.099219 126.99922 97.800391 126.19922 96.900391 L 115.30078 85.5 C 122.80078 76.8 127 65.7 127 54 C 127 27.5 105.5 6 79 6 z M 54 32 C 77.2 32 96 50.8 96 74 C 96 97.2 77.2 116 54 116 L 16 116 L 24 107.59961 C 25.1 106.39961 25.1 104.60039 24 103.40039 C 16.3 95.500391 12 85.1 12 74 C 12 50.8 30.8 32 54 32 z M 54 46 C 38.5 46 26 58.5 26 74 C 26 89.5 38.5 102 54 102 C 69.5 102 82 89.5 82 74 C 82 58.5 69.5 46 54 46 z M 39 61 L 54 61 C 55.7 61 57 62.3 57 64 C 57 65.7 55.7 67 54 67 L 39 67 C 37.3 67 36 65.7 36 64 C 36 62.3 37.3 61 39 61 z M 69 61 C 70.7 61 72 62.3 72 64 C 72 65.7 70.7 67 69 67 C 67.3 67 66 65.7 66 64 C 66 62.3 67.3 61 69 61 z M 39 71 L 69 71 C 70.7 71 72 72.3 72 74 C 72 75.7 70.7 77 69 77 L 39 77 C 37.3 77 36 75.7 36 74 C 36 72.3 37.3 71 39 71 z M 39 81 C 40.7 81 42 82.3 42 84 C 42 85.7 40.7 87 39 87 C 37.3 87 36 85.7 36 84 C 36 82.3 37.3 81 39 81 z M 54 81 L 69 81 C 70.7 81 72 82.3 72 84 C 72 85.7 70.7 87 69 87 L 54 87 C 52.3 87 51 85.7 51 84 C 51 82.3 52.3 81 54 81 z"/></svg>