<svg xmlns="http://www.w3.org/2000/svg"  viewBox="0 0 64 64" width="64px" height="64px" baseProfile="basic"><ellipse cx="32.003" cy="61.01" opacity=".3" rx="23" ry="3"/><path fill="#ffce29" d="M14.872,30.054c2.021-0.674,4.216-0.609,6.194,0.184l12.171,4.878c3.322,1.51,4.726,5.476,3.094,8.74	l-0.691,1.382l9.544-4.56c2.279-1.064,4.993-0.184,6.215,2.015l0,0c1.325,2.385,0.394,5.392-2.046,6.612l-10.594,5.297	c-0.95,0.475-2.051,0.546-3.054,0.197l-19.181-6.672c-0.262-0.091-0.547-0.089-0.807,0.006l-4.454,1.62	c-2.557,0.93-5.26-0.963-5.26-3.684V35.172c0-1.291,0.826-2.438,2.051-2.846L14.872,30.054z"/><path fill="none" stroke="#fff" stroke-linecap="round" stroke-linejoin="round" stroke-miterlimit="10" stroke-width="3" d="M9.503,39.51v-3.978l3.172-1.057"/><path fill="#fff" d="M19.846,29.855c-1.637-0.399-3.36-0.34-4.974,0.198l-6.818,2.272	c-1.225,0.408-2.051,1.555-2.051,2.846v10.897c0,0.323,0.041,0.633,0.112,0.93c2.708-0.061,4.888-2.266,4.888-4.989v-5.396	l5.45-1.816C18.614,34.077,19.932,32.022,19.846,29.855z" opacity=".3"/><path d="M47.117,44.834L36.926,49.93l-9.913-3.448c-2.61-0.908-5.459,0.472-6.365,3.08l0,0l15.058,5.237	c1.003,0.349,2.104,0.278,3.054-0.197l10.594-5.297c1.667-0.834,2.606-2.504,2.626-4.238C50.554,44.186,48.727,44.028,47.117,44.834	z" opacity=".15"/><circle cx="41.003" cy="20.01" r="12" fill="#ffa602"/><circle cx="41.003" cy="20.01" r="9" fill="#ffce29"/><path fill="#ffa602" d="M42.026,14.243l1.215,2.463l2.717,0.395c0.999,0.145,1.399,1.373,0.675,2.079l-1.967,1.917	l0.464,2.706c0.171,0.996-0.874,1.755-1.768,1.284l-2.431-1.278l-2.431,1.278c-0.894,0.47-1.939-0.289-1.768-1.284l0.464-2.706	l-1.967-1.917c-0.724-0.706-0.324-1.934,0.675-2.079l2.717-0.395l1.215-2.463C40.287,13.337,41.579,13.337,42.026,14.243z"/></svg>